<svg id="Layer_1" data-name="Layer 1" xmlns="http://www.w3.org/2000/svg" viewBox="0 0 50 50"><title>cons</title><circle class="cls-1" cx="25.33" cy="25" r="5.56"/><path class="cls-1" d="M25.33,40.74A15.74,15.74,0,1,1,41.07,25,15.75,15.75,0,0,1,25.33,40.74Zm0-29.18A13.44,13.44,0,1,0,38.77,25,13.45,13.45,0,0,0,25.33,11.56Z"/><path class="cls-1" d="M25.33,45.92A20.92,20.92,0,1,1,46.25,25,20.94,20.94,0,0,1,25.33,45.92Zm0-39.53A18.61,18.61,0,1,0,44,25,18.63,18.63,0,0,0,25.33,6.39Z"/><rect class="cls-1" x="24.37" y="11.38" width="1.92" height="27.25"/><rect class="cls-1" x="24.37" y="11.38" width="1.92" height="27.25" transform="translate(50.33 -0.33) rotate(90)"/></svg>
