<svg id="Layer_1" data-name="Layer 1" xmlns="http://www.w3.org/2000/svg" viewBox="0 0 50 50"><title>cons</title><g id="vwkccu.tif"><path d="M27.9,41.88l-.28-4.07H22.37l-.29,4.07H11.93c.08-.38.16-.75.25-1.11q2.22-9,4.45-18.07c.69-2.8,1.39-5.59,2.07-8.39.06-.26.16-.34.43-.34H30.87a.36.36,0,0,1,.42.32q1.35,5.55,2.72,11.1,2,8.09,4,16.18c0,.09,0,.19.07.31Zm-.6-8c0-.2,0-.38,0-.56-.07-1-.16-2-.22-3,0-.25-.08-.33-.34-.32-1.17,0-2.33,0-3.5,0l-.3,0-.29,3.89ZM26.75,26l-.27-3.87h-3L23.23,26Zm-2.94-7.84h2.33l0-.05c-.08-1.23-.16-2.45-.26-3.68,0-.06-.16-.15-.24-.15-.43,0-.87,0-1.3,0-.23,0-.28.09-.29.3,0,.63-.1,1.25-.15,1.87S23.85,17.6,23.81,18.19Z"/><path d="M5.23,41.86l.89-2.64Q9,30.84,11.84,22.44c.91-2.68,1.82-5.35,2.72-8,.11-.32.25-.46.61-.44.56,0,1.12,0,1.74,0-.11.42-.2.8-.29,1.18l-4.68,19q-.93,3.75-1.87,7.5c0,.1-.17.25-.25.25H5.34Z"/><path d="M44.77,41.9H40.32c-.26,0-.36-.06-.43-.33q-1.77-7.24-3.58-14.48-1.58-6.42-3.16-12.82c0-.08,0-.17-.06-.29.7,0,1.37,0,2,0,.09,0,.21.17.24.28q.95,2.75,1.87,5.49,3,8.63,5.89,17.27l1.54,4.53Z"/></g></svg>