<svg xmlns="http://www.w3.org/2000/svg" xmlns:xlink="http://www.w3.org/1999/xlink" viewBox="0 0 60 57">
  <defs>
    <clipPath id="clip-Web_1920_1">
      <rect width="60" height="57"/>
    </clipPath>
  </defs>
  <g id="Web_1920_1" data-name="Web 1920 – 1" class="cls-1">
    <g id="WcgjdE.tif_1_" transform="translate(15 13)">
      <g id="Group_3" data-name="Group 3" transform="translate(0)">
        <g id="Group_2" data-name="Group 2" transform="translate(0)">
          <path id="Path_29" data-name="Path 29" d="M21.5,72.04v-2.5H39.248a5.112,5.112,0,0,1,2.009-4.032,4.977,4.977,0,0,1,3.38-1.037,5.156,5.156,0,0,1,4.821,5.046h2.481V72.04H49.954a1.847,1.847,0,0,0-1.891.825,4.9,4.9,0,0,1-7.846-.542.524.524,0,0,0-.544-.283H21.5Zm25.406-2.523a2.553,2.553,0,1,0-2.576,2.547A2.435,2.435,0,0,0,46.906,69.517Z" transform="translate(-21.5 -54.316)"/>
          <path id="Path_30" data-name="Path 30" d="M52.092,112.492v2.523H34.06a.667.667,0,0,0-.685.354,4.952,4.952,0,0,1-8.2-.024.6.6,0,0,0-.638-.33c-.945.024-1.867,0-2.836,0v-2.5h2.481a5.1,5.1,0,0,1,2.151-4.15,4.923,4.923,0,0,1,3.332-.92,5.13,5.13,0,0,1,4.7,5.046Zm-20.277,0a2.552,2.552,0,1,0-2.576,2.547A2.423,2.423,0,0,0,31.815,112.492Z" transform="translate(-21.653 -87.152)"/>
          <path id="Path_31" data-name="Path 31" d="M52.016,26.492v2.523H33.889a.607.607,0,0,0-.591.33,4.952,4.952,0,0,1-8.224,0,.638.638,0,0,0-.638-.33c-.945.024-1.867,0-2.836,0v-2.5h2.481a5.133,5.133,0,0,1,2.127-4.126,4.879,4.879,0,0,1,3.356-.943,5.148,5.148,0,0,1,4.7,5.046ZM29.163,23.969a2.547,2.547,0,1,0,2.552,2.57A2.4,2.4,0,0,0,29.163,23.969Z" transform="translate(-21.576 -21.43)"/>
        </g>
      </g>
    </g>
  </g>
</svg>
