<svg xmlns="http://www.w3.org/2000/svg" xmlns:xlink="http://www.w3.org/1999/xlink" viewBox="0 0 50 50">
  <defs>
    <clipPath id="clip-canvas">
      <rect width="50" height="50"/>
    </clipPath>
  </defs>
  <g id="canvas" class="cls-1">
    <g id="bAQd0c.tif_1_" transform="translate(6.034 6.012)">
      <g id="Group_74" data-name="Group 74" transform="translate(-0.034 -0.012)">
        <path id="Path_86" data-name="Path 86" d="M9.607,34.967C2.57,31.49-1.48,22.388.443,14.513A18.8,18.8,0,0,1,19.036-.01,18.855,18.855,0,0,1,36.954,14.84a18.587,18.587,0,0,1-9.245,20.107c-.348-.8-.7-1.6-1.084-2.5,5.216-3.4,8.039-8.141,7.854-14.4a15.331,15.331,0,0,0-5.093-11A15.88,15.88,0,1,0,10.65,32.472C10.323,33.269,10,34.088,9.607,34.967Z" transform="translate(0.034 0.012)"/>
        <path id="Path_87" data-name="Path 87" d="M47.861,52.027c-.368-.839-.716-1.657-1.064-2.475A10.12,10.12,0,0,0,48.372,34.17a10,10,0,0,0-14.563.041c-3.661,3.8-4.234,10.82,1.636,15.32-.348.818-.716,1.636-1.064,2.475A12.727,12.727,0,0,1,28.552,38.1a12.942,12.942,0,0,1,25.138-.082C54.979,43.518,52.443,49.695,47.861,52.027Z" transform="translate(-22.429 -22.427)"/>
        <path id="Path_88" data-name="Path 88" d="M59.055,69.126a7.024,7.024,0,0,1-2.311-7.875,7.171,7.171,0,0,1,13.684.552,6.842,6.842,0,0,1-2.475,7.282c-.327-.757-.7-1.473-.961-2.25a1.294,1.294,0,0,1,.184-.9A4.325,4.325,0,1,0,59.2,63.317a4.4,4.4,0,0,0,.491,2.23,1.861,1.861,0,0,1,.061,2.045A13.317,13.317,0,0,0,59.055,69.126Z" transform="translate(-44.812 -44.926)"/>
        <path id="Path_89" data-name="Path 89" d="M87.282,104.651h-2.72c-.02-.348-.061-.655-.061-.941V86.426c0-.8.082-1.534,1.023-1.759,1.064-.266,1.759.368,1.759,1.616v18.368Z" transform="translate(-67.209 -67.299)"/>
      </g>
    </g>
  </g>
</svg>
