<svg xmlns="http://www.w3.org/2000/svg" xmlns:xlink="http://www.w3.org/1999/xlink" viewBox="0 0 60 57">
  <defs>
    <style>
      .cls-1 {
        clip-path: url(#clip-Web_1920_4);
      }
    </style>
    <clipPath id="clip-Web_1920_4">
      <rect width="60" height="57"/>
    </clipPath>
  </defs>
  <g id="Web_1920_4" data-name="Web 1920 – 4" class="cls-1">
    <g id="rbKao3.tif_1_" transform="translate(14.58 11.073)">
      <g id="Group_9" data-name="Group 9" transform="translate(0.2 0.091)">
        <path id="Path_34" data-name="Path 34" d="M24.619,28.771h-.231a.524.524,0,0,1-.2-.475q.02-.956,0-1.913a.9.9,0,0,1,.3-.719l1.14-1.14a8.872,8.872,0,0,0,.719-.882c.2-.258.38-.529.57-.8a10.492,10.492,0,0,0,.692-1.194,5.355,5.355,0,0,0,.312-.624c.109-.271.231-.529.326-.787.122-.3.19-.61.3-.922.054-.163.081-.312.122-.475s.068-.3.109-.448a7.845,7.845,0,0,1,.163-.773,2.673,2.673,0,0,0,.054-.461,10.955,10.955,0,0,0,.054-1.886c-.027-.271-.041-.543-.054-.814,0-.095-.054-.19-.054-.3a.469.469,0,0,0-.027-.271c-.041-.081,0-.2-.027-.312-.068-.285-.109-.57-.176-.855a3.379,3.379,0,0,0-.122-.5c-.068-.163-.095-.339-.163-.516s-.109-.312-.176-.475c-.081-.231-.149-.461-.244-.678-.122-.3-.258-.583-.407-.868a12.149,12.149,0,0,0-.76-1.275,12.475,12.475,0,0,0-.773-1.058c-.285-.339-.6-.638-.9-.963-.122-.136-.258-.258-.393-.393s-.271-.231-.407-.353A15.3,15.3,0,0,0,22.95,4.583c-.407-.258-.855-.488-1.289-.705a13.944,13.944,0,0,0-1.4-.6,6.438,6.438,0,0,0-.868-.271,4.491,4.491,0,0,1-.57-.163c-.109-.041-.2,0-.326-.068a1.723,1.723,0,0,0-.461-.068c-.095-.014-.19-.041-.3-.054s-.19.041-.271-.054c-.014-.014-.054,0-.081,0a12.5,12.5,0,0,0-1.424-.054c-.217.014-.421,0-.638,0a6.077,6.077,0,0,0-.99.068,3.755,3.755,0,0,0-.882.163,5.075,5.075,0,0,0-1.18.244,5.672,5.672,0,0,0-1.112.38c-.5.2-.99.407-1.465.651a9.626,9.626,0,0,0-.95.556c-.258.176-.5.366-.773.516-.163.095-.271.244-.434.339a4.3,4.3,0,0,0-.529.461,3.425,3.425,0,0,0-.339.285c-.271.285-.57.57-.814.882-.285.353-.556.705-.814,1.072-.217.312-.421.638-.624.963a9.416,9.416,0,0,0-.516.963,12.276,12.276,0,0,0-.678,1.777,5.753,5.753,0,0,0-.258,1.085,3.32,3.32,0,0,1-.109.5c-.041.163-.027.339-.068.488a5.085,5.085,0,0,0-.068.638,2.594,2.594,0,0,0-.027.651v.638c0,.217-.014.448,0,.665,0,.136.041.271.054.407a1.252,1.252,0,0,0,.041.38,1.464,1.464,0,0,1,.054.434,7.322,7.322,0,0,0,.136.787A9.614,9.614,0,0,0,3.334,19.8a12.677,12.677,0,0,0,.855,1.967,12.845,12.845,0,0,0,.95,1.519c.339.448.678.882,1.058,1.3.163.176.312.353.475.516.122.122.258.217.38.326a2.025,2.025,0,0,0,.366.312A.977.977,0,0,1,7.688,26a.39.39,0,0,1,.095.244v2.116a1.3,1.3,0,0,1-.081.353c-.068.041-.149.109-.231.163a5.185,5.185,0,0,1-.651-.393c-.217-.163-.434-.312-.638-.475-.326-.258-.624-.543-.936-.814a10.768,10.768,0,0,1-.8-.773c-.122-.136-.244-.285-.38-.421a5.055,5.055,0,0,1-.353-.407c-.326-.434-.665-.882-.977-1.329a7.782,7.782,0,0,1-.434-.719q-.387-.712-.733-1.424c-.122-.258-.231-.543-.339-.814-.149-.393-.271-.787-.407-1.194-.068-.19-.095-.38-.149-.57-.109-.326-.136-.678-.231-1C.4,18.379.4,18.216.376,18.04c-.014-.109-.041-.217-.054-.326s.054-.231-.054-.326c-.014-.014,0-.054,0-.081A7.418,7.418,0,0,0,.2,16.372c.014-.312,0-.638,0-.95v-.665a5.838,5.838,0,0,0,.054-.841c.081-.122.027-.285.068-.407s.014-.285.054-.407a5.494,5.494,0,0,1,.163-.678,11.259,11.259,0,0,1,.3-1.3,3.144,3.144,0,0,1,.217-.6c.122-.312.231-.638.353-.95.027-.081.081-.136.109-.217.109-.258.217-.516.339-.76.19-.366.407-.719.61-1.072a6.531,6.531,0,0,1,.543-.814c.149-.2.285-.407.434-.6.217-.271.448-.529.665-.8A13.724,13.724,0,0,1,5.26,4.122a8.7,8.7,0,0,1,1.167-.95c.271-.176.529-.393.814-.57s.543-.326.8-.5C8.5,1.815,9,1.6,9.493,1.354a5.763,5.763,0,0,1,.665-.285C10.537.947,10.89.8,11.27.7c.258-.068.5-.149.746-.217.109-.027.244-.014.312-.068.109-.095.244,0,.339-.081s.2-.014.326-.068A1.419,1.419,0,0,1,13.481.2a.961.961,0,0,0,.393,0c.122-.014.244.041.353-.054h.027c.285.041.556-.068.841-.054.421.014.828.014,1.248,0,.366-.014.733.095,1.1.068A1.08,1.08,0,0,0,17.9.215a2.519,2.519,0,0,1,.461.068c.231.054.461.095.692.149.271.054.543.122.814.19a4.577,4.577,0,0,1,.461.136,4.187,4.187,0,0,1,.583.19,4.234,4.234,0,0,0,.583.2,3.762,3.762,0,0,1,.353.136c.488.231.977.434,1.438.705a13.687,13.687,0,0,1,1.628,1.031c.258.19.516.407.8.583a4.365,4.365,0,0,1,.38.326,11.357,11.357,0,0,1,.841.773c.244.244.475.488.692.746.271.312.529.624.773.95a1.708,1.708,0,0,1,.258.38c.054.149.2.231.244.393a1,1,0,0,0,.258.38c.136.149.19.353.312.516a5.711,5.711,0,0,1,.461.855c.095.217.19.434.3.665.095.2.136.448.244.651a7.812,7.812,0,0,1,.366,1.031c.081.271.149.556.217.841.041.2.095.421.149.624a3.155,3.155,0,0,1,.068.38,2.6,2.6,0,0,0,.068.556c.095.231.027.461.095.678s-.027.461.027.692a7.714,7.714,0,0,1,.041,1.37c0,.149-.041.312-.054.461a2.622,2.622,0,0,1-.014.461c-.041.149-.027.3-.054.434s-.027.285-.054.407a3.734,3.734,0,0,1-.163.773,3.91,3.91,0,0,1-.176.882,11.31,11.31,0,0,1-.353,1.153A16.875,16.875,0,0,1,29.6,23.3a10.753,10.753,0,0,1-.841,1.357c-.244.353-.5.678-.773,1.017a15.008,15.008,0,0,1-1.56,1.655c-.285.258-.583.516-.9.76A7.191,7.191,0,0,0,24.619,28.771Z" transform="translate(-0.2 -0.091)"/>
        <path id="Path_35" data-name="Path 35" d="M96.636,90.627v17.256H91.78V90.776c-.149-.176-.285-.339-.421-.5a2.642,2.642,0,0,1-.326-.529,4.234,4.234,0,0,1-.2-.583,2.485,2.485,0,0,1-.095-.624,4.788,4.788,0,0,1,0-.624,2.423,2.423,0,0,1,.122-.624,4.171,4.171,0,0,1,.231-.57,2.641,2.641,0,0,1,.326-.529,3.724,3.724,0,0,1,.434-.488c.109-.109.258-.163.38-.271a1.624,1.624,0,0,1,.421-.244,3.959,3.959,0,0,1,.421-.19,2.585,2.585,0,0,1,.461-.136A3,3,0,0,0,94,84.807a1.216,1.216,0,0,1,.488.041,2.741,2.741,0,0,1,.461.081c.149.054.326.041.448.163.163-.014.285.109.421.176a2.073,2.073,0,0,1,.407.258,2.63,2.63,0,0,1,.353.312,4.749,4.749,0,0,1,.678.963,4.175,4.175,0,0,1,.3,1.18,3.4,3.4,0,0,1-.19,1.479A2.973,2.973,0,0,1,96.636,90.627Z" transform="translate(-78.445 -73.302)"/>
        <path id="Path_36" data-name="Path 36" d="M57.209,55.69V54.645a.454.454,0,0,1,.149-.366c.244-.231.5-.461.746-.692a6.678,6.678,0,0,0,.95-1.194,5.814,5.814,0,0,0,.421-.746,6.7,6.7,0,0,0,.5-1.438c.041-.19.081-.366.122-.556s.014-.393.054-.583a3.5,3.5,0,0,0,.054-.529,6.348,6.348,0,0,1-.054-.868c-.081-.122-.014-.3-.068-.407-.068-.136-.014-.271-.095-.393s-.027-.271-.081-.407a10.322,10.322,0,0,0-.421-1.072c-.217-.38-.407-.773-.665-1.14a7.393,7.393,0,0,0-1.1-1.248,4.877,4.877,0,0,0-.773-.6,7.162,7.162,0,0,0-1.275-.678c-.271-.095-.556-.2-.828-.285a2.524,2.524,0,0,0-.719-.163c-.122,0-.217-.081-.353-.068a1.564,1.564,0,0,1-.353-.041c-.271-.027-.556-.014-.841-.014a1.422,1.422,0,0,0-.475.054c-.149.041-.326-.041-.461.068a1.67,1.67,0,0,0-.678.122,5.334,5.334,0,0,0-.787.258,8.147,8.147,0,0,0-1.452.746A7.087,7.087,0,0,0,47.2,43.792a4.7,4.7,0,0,0-.6.841c-.19.312-.339.638-.5.95a4.855,4.855,0,0,0-.312.882,6.769,6.769,0,0,1-.217.868v.027a11.125,11.125,0,0,0-.054,1.628,2.094,2.094,0,0,1,.054.407,2.1,2.1,0,0,0,.054.407,5.892,5.892,0,0,0,.258.99,3.5,3.5,0,0,0,.244.624c.122.176.19.38.3.57a5.86,5.86,0,0,0,.733,1.085c.231.271.488.516.719.773a1.867,1.867,0,0,0,.407.326.945.945,0,0,1,.271.244.391.391,0,0,1,.081.258c-.014.719,0,1.452,0,2.171a.367.367,0,0,1-.231.366.333.333,0,0,1-.326-.054,3.736,3.736,0,0,1-.556-.326c-.244-.2-.529-.366-.787-.57a10.148,10.148,0,0,1-1.126-1.031,10.36,10.36,0,0,1-.692-.841,9.4,9.4,0,0,1-.651-.977,7.6,7.6,0,0,1-.61-1.3c-.095-.285-.2-.57-.3-.855-.068-.2-.109-.421-.163-.624-.041-.149-.041-.3-.095-.448-.027-.068,0-.149-.014-.231a1.13,1.13,0,0,1-.054-.2,7.7,7.7,0,0,0-.068-.787,7.61,7.61,0,0,0,0-.787,8.543,8.543,0,0,1,.068-1.017,3.027,3.027,0,0,1,.109-.61,4.8,4.8,0,0,0,.149-.6,6.437,6.437,0,0,1,.2-.678c.068-.217.176-.434.258-.638a8.55,8.55,0,0,1,.909-1.655,7.608,7.608,0,0,1,.977-1.207c.122-.122.2-.271.326-.38a10.787,10.787,0,0,1,1.058-.855c.217-.149.421-.3.638-.434a3.621,3.621,0,0,1,.583-.339c.19-.081.38-.19.583-.271.244-.095.488-.217.746-.312.3-.109.6-.176.909-.258.109-.027.258-.014.339-.081.109-.081.258.041.339-.095,0-.014.041,0,.054,0,.244.027.475-.095.733-.054a6.586,6.586,0,0,1,1.37-.054,1.142,1.142,0,0,1,.475.054c.149.041.312-.014.475.054a1.524,1.524,0,0,0,.434.054,4.85,4.85,0,0,1,.638.149,6.812,6.812,0,0,1,.9.271c.176.068.353.136.516.217a7.2,7.2,0,0,1,.868.407c.271.163.543.326.8.515s.516.421.787.61a6.966,6.966,0,0,1,.977.922,7.4,7.4,0,0,1,.977,1.275,8.892,8.892,0,0,1,.665,1.221c.068.163.149.326.2.5s.149.339.2.516a4.294,4.294,0,0,1,.163.5,8.053,8.053,0,0,1,.19.963c0,.122.054.244.054.38a3.657,3.657,0,0,0,.054.38,2.009,2.009,0,0,0,.014.407,3.076,3.076,0,0,1,.054.787c.014.285-.095.556-.054.841-.122.149-.014.339-.095.516-.068.136-.027.326-.081.488-.068.231-.109.461-.176.678-.095.258-.163.529-.271.787-.176.393-.339.787-.556,1.167-.19.326-.393.651-.61.963-.163.231-.326.448-.5.665a5.762,5.762,0,0,1-.475.529,10.986,10.986,0,0,1-1.8,1.452,2.814,2.814,0,0,1-.434.258.321.321,0,0,1-.488-.3v-.312C57.209,56.219,57.209,55.947,57.209,55.69Z" transform="translate(-37.159 -33.4)"/>
      </g>
    </g>
  </g>
</svg>
