<svg xmlns="http://www.w3.org/2000/svg" xmlns:xlink="http://www.w3.org/1999/xlink" viewBox="0 0 60 57">
  <defs>
    <style>
      .cls-2 {
        stroke: #000;
        stroke-width: 0.5px;
      }
    </style>
    <clipPath id="clip-Web_1920_5">
      <rect width="60" height="57"/>
    </clipPath>
  </defs>
  <g id="Web_1920_5" data-name="Web 1920 – 5" class="cls-1">
    <g id="P5TI5B.tif_1_" transform="translate(-1.386 -104.099)">
      <g id="Group_50" data-name="Group 50" transform="translate(8.36 119.924)">
        <g id="Group_49" data-name="Group 49" transform="translate(0)">
          <path id="Path_76" data-name="Path 76" class="cls-2" d="M50.017,132.166l-6.826,7.446c-.676.742-1.352,1.484-2.028,2.216a.421.421,0,0,0-.1.563,3.091,3.091,0,0,1-1.183,3.944,3,3,0,0,1-3.972-.376c-1.249-1.23-1.352-2.639-.291-4.31-.77-1.193-1.549-2.4-2.329-3.606q-3.662-5.676-7.333-11.343a.548.548,0,0,0-.667-.31A2.672,2.672,0,0,1,23.2,125.9a.5.5,0,0,0-.657-.028q-3.718,2.366-7.446,4.714c-.188.122-.366.225-.291.507a3.345,3.345,0,0,1-2.047,3.531,3.083,3.083,0,0,1-3.615-1,3,3,0,0,1,.047-4.094,3.028,3.028,0,0,1,4.122-.629c.1.066.207.141.329.216q2.831-1.789,5.671-3.578c.7-.441,1.4-.892,2.1-1.324a.456.456,0,0,0,.263-.516,3.373,3.373,0,0,1,2.751-3.756,3.432,3.432,0,0,1,3.69,2.93,2.8,2.8,0,0,1-.545,1.991.459.459,0,0,0-.019.61q4.789,7.38,9.559,14.761a.435.435,0,0,0,.479.235,5.555,5.555,0,0,1,1.474.113.577.577,0,0,0,.676-.16q4.282-4.7,8.6-9.371a.464.464,0,0,0,.094-.61,3.024,3.024,0,0,1,1-3.756,2.961,2.961,0,0,1,3.765-.113,3.117,3.117,0,0,1,1.239,3.662,3.344,3.344,0,0,1-3.418,2.178A7.616,7.616,0,0,1,50.017,132.166Zm1.333-1.709a1.147,1.147,0,0,0,1.286-1.258,1.254,1.254,0,0,0-2.507-.019A1.15,1.15,0,0,0,51.351,130.457Zm-13.24,14.46a1.129,1.129,0,0,0,1.258-1.239,1.185,1.185,0,0,0-1.239-1.268,1.2,1.2,0,0,0-1.268,1.249A1.136,1.136,0,0,0,38.111,144.917ZM26.092,123.189a1.107,1.107,0,0,0-1.211-1.277,1.122,1.122,0,0,0-1.268,1.221,1.154,1.154,0,0,0,1.221,1.286A1.141,1.141,0,0,0,26.092,123.189Zm-13.258,8.441a1.173,1.173,0,0,0-1.221-1.277,1.115,1.115,0,0,0-1.258,1.221c-.009.864.385,1.277,1.23,1.277A1.085,1.085,0,0,0,12.834,131.631Z" transform="translate(-8.36 -119.924)"/>
        </g>
      </g>
    </g>
  </g>
</svg>
